<svg width="327" height="164" viewBox="0 0 327 164" fill="none" xmlns="http://www.w3.org/2000/svg">
<rect width="327" height="164" rx="20" fill="#FFB017"/>
<mask id="mask0_1_1296" style="mask-type:alpha" maskUnits="userSpaceOnUse" x="0" y="0" width="327" height="164">
<rect width="327" height="164" rx="20" fill="#2567F9"/>
</mask>
<g mask="url(#mask0_1_1296)">
<path d="M331.184 -10.8122C331.184 -2.53376 337.884 4.17739 346.15 4.17739C354.415 4.17739 361.116 -2.53376 361.116 -10.8122V-27.7505" stroke="white" stroke-opacity="0.2" stroke-width="12" stroke-linecap="round" stroke-linejoin="round"/>
<path d="M358.871 218.84C362.185 218.84 364.871 216.154 364.871 212.84C364.871 209.526 362.185 206.84 358.871 206.84V218.84ZM332.586 259.478C335.9 259.478 338.586 256.792 338.586 253.478C338.586 250.164 335.9 247.478 332.586 247.478V259.478ZM282.504 330.204C285.818 330.204 288.504 327.518 288.504 324.204C288.504 320.891 285.818 318.204 282.504 318.204V330.204ZM338.719 274.579C338.719 271.265 336.033 268.579 332.719 268.579C329.405 268.579 326.719 271.265 326.719 274.579H338.719ZM294.222 118.669C294.222 115.355 291.535 112.669 288.222 112.669C284.908 112.669 282.222 115.355 282.222 118.669H294.222ZM352.872 191.349C352.872 194.662 355.558 197.349 358.872 197.349C362.186 197.349 364.872 194.662 364.872 191.349H352.872ZM358.871 206.84H314.113V218.84H358.871V206.84ZM314.113 206.84C299.548 206.84 287.686 218.594 287.686 233.159H299.686C299.686 225.281 306.115 218.84 314.113 218.84V206.84ZM287.686 233.159C287.686 247.725 299.548 259.478 314.113 259.478V247.478C306.115 247.478 299.686 241.037 299.686 233.159H287.686ZM314.113 259.478H332.586V247.478H314.113V259.478ZM282.504 318.204H279.836V330.204H282.504V318.204ZM279.836 318.204C275.284 318.204 271.582 314.507 271.582 309.936H259.582C259.582 321.122 268.644 330.204 279.836 330.204V318.204ZM271.582 309.936C271.582 305.36 275.285 301.664 279.836 301.664V289.664C268.643 289.664 259.582 298.747 259.582 309.936H271.582ZM279.836 301.664H311.659V289.664H279.836V301.664ZM311.659 301.664C326.61 301.664 338.719 289.532 338.719 274.579H326.719C326.719 282.917 319.97 289.664 311.659 289.664V301.664ZM282.222 118.669V134.704H294.222V118.669H282.222ZM282.222 134.704C282.222 157.543 300.717 176.069 323.547 176.069V164.069C307.357 164.069 294.222 150.928 294.222 134.704H282.222ZM323.547 176.069H337.616V164.069H323.547V176.069ZM337.616 176.069C346.035 176.069 352.872 182.904 352.872 191.349H364.872C364.872 176.289 352.676 164.069 337.616 164.069V176.069Z" fill="white" fill-opacity="0.2"/>
<path fill-rule="evenodd" clip-rule="evenodd" d="M337.669 80.0061C343.179 80.0061 347.646 75.539 347.646 70.0286C347.646 64.5182 343.179 60.0511 337.669 60.0511C332.158 60.0511 327.691 64.5182 327.691 70.0286C327.691 75.539 332.158 80.0061 337.669 80.0061Z" stroke="white" stroke-opacity="0.2" stroke-width="12" stroke-linecap="round" stroke-linejoin="round"/>
<path fill-rule="evenodd" clip-rule="evenodd" d="M236.896 51.8196C245.575 51.8196 252.611 44.784 252.611 36.1051C252.611 27.4262 245.575 20.3906 236.896 20.3906C228.217 20.3906 221.182 27.4262 221.182 36.1051C221.182 44.784 228.217 51.8196 236.896 51.8196Z" stroke="white" stroke-opacity="0.2" stroke-width="12" stroke-linecap="round" stroke-linejoin="round"/>
<path d="M237.021 70.278C256.376 70.278 272.067 54.8108 272.067 35.731C272.067 16.6513 256.376 1.18408 237.021 1.18408C217.666 1.18408 201.975 16.6513 201.975 35.731" stroke="white" stroke-opacity="0.2" stroke-width="12" stroke-linecap="round" stroke-linejoin="round"/>
<path d="M272.94 75.2668C265.018 75.2668 258.597 81.688 258.597 89.6094C258.597 97.5307 265.018 103.952 272.94 103.952C280.861 103.952 287.282 97.5307 287.282 89.6094V75.2668" stroke="white" stroke-opacity="0.2" stroke-width="12" stroke-linecap="round" stroke-linejoin="round"/>
<path d="M277.306 -8.66859C277.306 1.86999 285.793 10.4133 296.263 10.4133C306.732 10.4133 315.22 1.86999 315.22 -8.66859C315.22 -19.2072 306.732 -27.7505 296.263 -27.7505H277.306" stroke="white" stroke-opacity="0.2" stroke-width="12" stroke-linecap="round" stroke-linejoin="round"/>
<path d="M208.834 188.157C199.673 188.157 192.247 180.81 192.247 171.747C192.247 162.683 199.673 155.336 208.834 155.336C217.995 155.336 225.422 162.683 225.422 171.747V221.936" stroke="white" stroke-opacity="0.2" stroke-width="12" stroke-linecap="round" stroke-linejoin="round"/>
<path d="M206.589 113.857C198.668 113.857 192.247 120.182 192.247 127.986C192.247 135.79 198.668 142.116 206.589 142.116C214.51 142.116 220.932 135.79 220.932 127.986V70.278" stroke="white" stroke-opacity="0.2" stroke-width="12" stroke-linecap="round" stroke-linejoin="round"/>
<path d="M362.788 70.278C362.788 56.0888 351.469 44.586 337.507 44.586C323.545 44.586 312.226 56.0888 312.226 70.278C312.226 84.4671 323.545 95.9699 337.507 95.9699H403.769" stroke="white" stroke-opacity="0.2" stroke-width="12" stroke-linecap="round" stroke-linejoin="round"/>
<path fill-rule="evenodd" clip-rule="evenodd" d="M257.475 189.259C249.278 189.259 242.633 182.626 242.633 174.443V132.238C242.633 124.055 249.278 117.421 257.475 117.421V117.421C265.672 117.421 272.316 124.055 272.316 132.238V174.443C272.316 182.626 265.672 189.259 257.475 189.259V189.259Z" stroke="white" stroke-opacity="0.2" stroke-width="12" stroke-linecap="round" stroke-linejoin="round"/>
<path d="M337.17 146.855H324.901C316.661 146.855 309.981 140.154 309.981 131.889C309.981 123.623 316.661 116.923 324.901 116.923H349.439C357.679 116.923 364.359 123.623 364.359 131.889V133.218C364.359 140.75 358.272 146.855 350.764 146.855" stroke="white" stroke-opacity="0.2" stroke-width="12" stroke-linecap="round" stroke-linejoin="round"/>
<path d="M359.37 22.6357H325.776C304.517 22.6357 287.283 39.9455 287.283 61.2984" stroke="white" stroke-opacity="0.2" stroke-width="12" stroke-linecap="round" stroke-linejoin="round"/>
<path d="M202.1 53.3163C202.1 55.6394 202.1 84.8819 202.1 99.2127" stroke="white" stroke-opacity="0.2" stroke-width="12" stroke-linecap="round" stroke-linejoin="round"/>
</g>
</svg>
